<svg xmlns="http://www.w3.org/2000/svg" viewBox="0 0 1600 900">
  <rect width="1600" height="900" fill="#0A0A0A"/>
  <path d="M0 560 C320 430 520 520 830 390 C1120 270 1320 340 1600 235 L1600 900 L0 900Z" fill="#242424"/>
  <path d="M260 595 L800 250 L1320 595 Z" fill="#111"/>
  <path d="M500 590 L800 360 L1100 590 Z" fill="#CFC2AC" opacity=".24"/>
  <g stroke="#F5F2EC" stroke-opacity=".13">
    <path d="M0 180h1600"/><path d="M0 360h1600"/><path d="M0 540h1600"/>
    <path d="M320 0v900"/><path d="M640 0v900"/><path d="M960 0v900"/><path d="M1280 0v900"/>
  </g>
  <circle cx="800" cy="450" r="72" fill="none" stroke="#F5F2EC" stroke-opacity=".55" stroke-width="2"/>
  <path d="M780 412 L780 488 L842 450 Z" fill="#E85C1A"/>
</svg>
